HIERARCHY
ROOT Hips
{
	OFFSET -3.958830 18.904000 13.208200
	CHANNELS 6 Xposition Yposition Zposition Zrotation Yrotation Xrotation 
	JOINT LHipJoint
	{
		OFFSET 0.000000 0.000000 0.000000
		CHANNELS 3 Zrotation Yrotation Xrotation
		JOINT LeftUpLeg
		{
			OFFSET 1.800000 -1.400000 0.085000
			CHANNELS 3 Zrotation Yrotation Xrotation
			JOINT LeftLeg
			{
				OFFSET 2.215000 -6.000000 0.000000
				CHANNELS 3 Zrotation Yrotation Xrotation
				JOINT LeftFoot
				{
					OFFSET 2.500000 -6.900000 0.000000
					CHANNELS 3 Zrotation Yrotation Xrotation
					JOINT LeftToeBase
					{
						OFFSET 0.200000 -0.500000 1.950000
						CHANNELS 3 Zrotation Yrotation Xrotation
						End Site
						{
							OFFSET 0.000000 0.000000 0.000000
						}
					}
				}
			}
		}
	}
	JOINT RHipJoint
	{
		OFFSET 0.000000 0.000000 0.000000
		CHANNELS 3 Zrotation Yrotation Xrotation
		JOINT RightUpLeg
		{
			OFFSET -1.800000 -1.400000 0.085000
			CHANNELS 3 Zrotation Yrotation Xrotation
			JOINT RightLeg
			{
				OFFSET -2.215000 -6.000000 0.000000
				CHANNELS 3 Zrotation Yrotation Xrotation
				JOINT RightFoot
				{
					OFFSET -2.500000 -6.900000 0.000000
					CHANNELS 3 Zrotation Yrotation Xrotation
					JOINT RightToeBase
					{
						OFFSET -0.200000 -0.500000 1.950000
						CHANNELS 3 Zrotation Yrotation Xrotation
						End Site
						{
							OFFSET 0.000000 0.000000 0.000000
						}
					}
				}
			}
		}
	}
	JOINT LowerBack
	{
		OFFSET 0.000000 0.000000 0.000000
		CHANNELS 3 Zrotation Yrotation Xrotation
		JOINT Spine
		{
			OFFSET -0.087000 1.940000 -0.288900
			CHANNELS 3 Zrotation Yrotation Xrotation
			JOINT Spine1
			{
				OFFSET 0.000000 1.950000 0.060000
				CHANNELS 3 Zrotation Yrotation Xrotation
				JOINT Neck
				{
					OFFSET 0.000000 0.000000 0.000000
					CHANNELS 3 Zrotation Yrotation Xrotation
					JOINT Neck1
					{
						OFFSET 0.000000 1.600000 0.340000
						CHANNELS 3 Zrotation Yrotation Xrotation
						JOINT Head
						{
							OFFSET 0.000000 1.667000 -0.240000
							CHANNELS 3 Zrotation Yrotation Xrotation
							End Site
							{
								OFFSET 0.000000 0.000000 0.000000
							}
						}
					}
				}
				JOINT LeftShoulder
				{
					OFFSET 0.000000 0.000000 0.000000
					CHANNELS 3 Zrotation Yrotation Xrotation
					JOINT LeftArm
					{
						OFFSET 2.700000 1.550000 -0.730000
						CHANNELS 3 Zrotation Yrotation Xrotation
						JOINT LeftForeArm
						{
							OFFSET 5.450000 0.000000 0.000000
							CHANNELS 3 Zrotation Yrotation Xrotation
							JOINT LeftHand
							{
								OFFSET 3.450000 0.000000 0.000000
								CHANNELS 3 Zrotation Yrotation Xrotation
								JOINT LeftHandIndex1
								{
									OFFSET 0.750000 0.000000 0.000000
									CHANNELS 3 Zrotation Yrotation Xrotation
									End Site
									{
										OFFSET 0.000000 0.000000 0.000000
									}
								}
							}
						}
					}
				}
				JOINT RightShoulder
				{
					OFFSET 0.000000 0.000000 0.000000
					CHANNELS 3 Zrotation Yrotation Xrotation
					JOINT RightArm
					{
						OFFSET -2.700000 1.550000 -0.730000
						CHANNELS 3 Zrotation Yrotation Xrotation
						JOINT RightForeArm
						{
							OFFSET -5.450000 0.000000 0.000000
							CHANNELS 3 Zrotation Yrotation Xrotation
							JOINT RightHand
							{
								OFFSET -3.450000 0.000000 0.000000
								CHANNELS 3 Zrotation Yrotation Xrotation
								JOINT RightHandIndex1
								{
									OFFSET -0.750000 0.000000 0.000000
									CHANNELS 3 Zrotation Yrotation Xrotation
									End Site
									{
										OFFSET 0.000000 0.000000 0.000000
									}
								}
							}
						}
					}
				}
			}
		}
	}
}
MOTION
Frames: 14
Frame Time: 0.016667
3.304660 16.144590 -5.594150 -12.897318 -35.653396 0.894270 -15.281427 12.642152 4.600212 1.793173 -6.627725 -35.464007 -8.730720 12.180716 39.762065 0.639864 7.457790 2.033115 -0.198370 -0.757810 0.105190 18.095245 -9.867191 3.797930 -7.774588 10.401977 -28.917570 6.705244 -13.320276 57.163685 -1.396933 -8.891449 1.424541 -0.801000 0.200800 0.375820 -2.706463 -2.103374 -9.400005 10.379692 3.884085 19.340340 -1.292398 8.536014 -32.606622 2.945999 0.314824 -10.825860 0.542132 -0.015706 45.108983 0.448910 2.325160 -0.707340 -6.779755 21.454508 -1.033688 -60.303811 23.810069 -11.940946 5.338729 -0.095390 -0.082380 -3.895267 2.230736 0.858970 -0.095520 0.227980 0.110990 -0.311197 -12.517703 4.629618 70.101779 -15.720096 -12.991137 -5.870738 2.041183 1.201620 2.978308 -0.689234 -0.129030 -0.126600 0.049000 -0.100910 
3.308550 16.157560 -5.607270 -13.248372 -35.617460 -8.491755 -15.079032 13.491069 4.142252 2.574110 -4.688735 -27.042546 -7.551924 12.173116 41.524381 0.473215 7.611563 1.803511 0.355130 -0.057330 0.445950 18.100096 -10.358964 3.585417 -8.060461 9.038702 -26.498232 5.661001 -9.907294 47.955298 -1.210352 -6.756527 1.959904 -0.377950 -0.114140 0.368740 -2.856868 -2.494050 -9.088627 14.187605 1.107088 25.634598 -2.786926 7.512723 -21.269947 3.725081 -4.425118 -14.118661 -6.725388 4.865525 62.049017 4.072550 2.961950 -16.380810 -24.278327 1.380181 1.962350 -61.770742 15.879556 -8.810907 9.820257 -1.009078 -0.098593 -3.444148 2.531466 1.125960 -0.379710 0.571990 0.171160 15.492628 12.300452 8.063963 65.263852 -2.956982 -6.861302 -9.144921 -3.725428 2.140255 2.815587 -0.935925 -0.022400 0.025780 -0.141460 -0.151320 
3.298110 16.171680 -5.643710 -13.359012 -32.995207 -17.627850 -14.924078 14.106065 3.646950 3.453269 -2.885883 -17.163517 -5.936760 11.534805 41.444470 0.235898 7.655375 1.731829 0.761000 0.443500 0.677770 18.121843 -10.985505 3.170730 -8.526944 6.318989 -23.437429 3.583671 -6.365798 35.446373 -0.881677 -4.382376 2.628371 0.017490 -0.224100 0.361470 -3.064602 -2.680273 -8.485188 15.092888 -1.147673 29.540288 -2.208647 4.594806 4.289344 5.234894 -6.069822 -21.172283 -14.685818 7.959331 61.264535 6.268500 1.235920 -27.656570 -34.440889 -25.534954 7.930721 -52.254408 1.242185 -4.614426 12.136283 0.538351 -0.563557 -3.139161 2.846028 1.222800 -0.483510 0.701630 0.222410 25.288793 36.873385 14.632797 45.279927 8.648883 -3.171867 -6.910378 -3.604143 1.400513 2.621292 -0.993204 -0.002200 0.203590 -0.238430 -0.177670 
3.242970 16.214100 -5.643590 -14.623478 -31.740568 -20.969623 -14.886038 14.391910 3.412562 5.225535 -1.943784 -12.595960 -4.830304 10.942746 40.437887 0.012440 7.568049 1.704778 1.023130 0.768090 0.885960 18.125917 -11.176806 3.081287 -6.912387 4.752457 -24.633494 -2.606874 -3.008610 25.323687 -0.693442 -2.548964 3.172546 0.284050 -0.313420 0.405740 -3.063097 -2.843873 -8.275560 15.194040 -2.008096 31.648837 -3.155453 2.893073 19.996210 6.479391 -3.607134 -25.841784 -11.405589 6.085083 56.643657 3.448940 1.416000 -33.349070 -29.929497 -37.576635 10.645230 -39.186983 -9.942659 -2.624399 12.214584 -3.953783 -1.788844 -3.106591 2.909527 1.232460 -0.479890 0.784970 0.230620 18.426600 46.211557 15.995364 32.444247 20.452947 -1.170083 -5.797391 -2.139835 0.802406 2.586479 -0.953699 0.026070 0.264070 -0.312630 -0.221910 
3.115040 16.203080 -5.594230 -14.668016 -26.310905 -21.902960 -15.014726 14.331987 3.291398 4.359720 -2.370356 -11.674441 -2.816709 10.122940 42.029604 -0.033041 7.683685 1.666924 1.172030 1.016520 0.863940 18.079458 -11.174881 2.914172 -7.597700 3.288506 -27.620502 -12.076565 -0.525515 20.298120 -0.644220 -2.163426 3.283240 0.496980 -0.204020 0.434320 -2.916054 -2.936601 -8.208200 12.110200 -1.267583 30.066146 0.002011 0.358024 28.564579 4.800706 -3.475755 -25.773817 -10.079214 3.606420 48.649093 4.661300 -0.207300 -32.436660 -17.560169 -40.560044 9.898551 -33.671263 -22.150750 -1.997069 16.201004 -6.118653 -3.025645 -3.269622 3.051105 1.068040 -0.367620 0.719970 0.322660 9.471803 47.510048 16.067264 20.847849 27.087250 -1.618712 -8.983197 -0.273736 -0.200094 2.620839 -1.094746 0.065610 0.318470 -0.352230 -0.138140 
3.025090 16.217720 -5.554940 -16.179995 -21.669661 -21.829510 -15.043147 14.252617 3.113292 5.266144 -2.540186 -11.817035 -1.129806 9.547840 43.289522 -0.123368 7.853971 1.631888 1.202660 1.093900 0.796840 18.106433 -10.985759 3.162864 -9.620125 4.242148 -33.187022 -20.130048 1.679885 26.129820 -0.792073 -3.269496 2.880219 0.615520 -0.062270 0.435090 -3.029674 -2.990013 -8.317193 13.228765 -1.985055 29.924044 -0.183094 -1.026655 32.151808 4.532216 -3.123743 -26.295025 -9.313172 1.966005 45.704233 4.895200 -2.103800 -30.769250 -10.606761 -41.068883 9.637209 -21.842739 -30.353292 -5.045428 22.222652 -8.844699 -5.105441 -3.478305 3.081733 0.966850 -0.258710 0.627660 0.377620 2.813509 47.403796 14.538146 10.048434 31.273047 -4.125251 -13.145649 -2.781898 -1.113019 2.838788 -1.222650 0.031240 0.412930 -0.321570 -0.087090 
2.897820 16.252600 -5.488270 -18.583163 -15.955685 -21.474833 -15.055087 14.173360 2.780860 7.251187 -2.180710 -11.835318 0.927534 8.685664 43.345796 -0.281758 7.866727 1.661488 1.133290 1.023420 0.689310 18.163409 -10.789377 3.530938 -13.958500 6.328411 -37.031149 -20.899118 2.735096 48.329413 -1.303576 -6.735429 1.737991 0.645340 0.118100 0.444390 -3.218079 -3.011238 -8.396106 15.554936 -2.985734 29.164518 -0.502155 -2.607787 32.687185 4.578377 -3.149584 -25.037412 -9.271940 0.594535 43.571163 4.313950 -3.956010 -28.964460 -3.862617 -41.215193 8.616873 -13.355091 -35.764686 -12.026458 32.769141 -16.596260 -10.299054 -3.615095 3.062182 0.903180 -0.128630 0.505410 0.391230 -4.163946 46.337787 12.700478 3.283965 31.071405 -7.957358 -18.265801 -1.431842 -2.367726 2.728996 -1.421630 -0.044970 0.520180 -0.215940 -0.065080 
2.779090 16.319180 -5.434110 -19.973410 -11.828831 -21.639759 -15.049905 14.124396 2.539314 9.194145 -1.870375 -11.667156 1.883063 8.307703 42.965542 -0.345590 7.838587 1.688283 1.141580 1.034420 0.653370 18.210213 -10.693782 3.701701 -14.880275 7.280376 -37.652550 -17.538810 0.721594 58.995887 -1.566287 -8.434081 1.210201 0.696100 0.205330 0.474140 -3.366417 -2.882476 -8.349455 16.581474 -3.736043 29.068267 -1.395551 -3.349352 30.863616 4.033183 -1.711202 -21.749640 -6.155656 -1.109291 40.913455 3.575380 -4.707830 -26.264940 1.592220 -43.673406 3.205670 -3.949757 -32.898005 -13.771638 33.504601 -20.723017 -10.721805 -3.848087 3.064514 0.793080 -0.023800 0.411830 0.422880 -9.168956 46.886217 8.708927 -1.659127 29.837683 -10.240233 -21.506006 -2.822225 -3.108099 2.774468 -1.662175 -0.050070 0.501190 -0.210240 -0.043490 
2.707970 16.434900 -5.419090 -23.144778 -8.380097 -22.155903 -14.934866 14.072470 2.310605 12.722458 -1.651961 -11.645291 2.539696 7.950646 41.837196 -0.427943 7.806289 1.749082 0.971310 0.841650 0.494010 18.327349 -10.839526 3.639661 -18.869311 6.581779 -36.450955 -9.291180 -5.384909 61.277030 -1.471698 -8.887532 1.090479 0.617750 0.378670 0.466150 -3.746529 -2.453155 -8.080459 21.925389 -6.129706 30.274283 -2.654123 -5.093093 27.796247 3.288540 -1.936069 -18.813769 -6.869737 -2.378225 37.368467 3.212820 -6.398350 -24.182770 6.624429 -47.331724 -3.993027 3.121458 -27.156348 -13.899134 31.078761 -21.615640 -9.228534 -4.185603 3.104428 0.721540 0.090540 0.271740 0.409330 -13.504710 49.118140 3.603344 -6.380403 21.494760 -12.535857 -23.190448 3.371476 -3.765214 2.531325 -1.667876 -0.124410 0.559650 -0.087910 -0.015200 
2.600170 16.628960 -5.325520 -24.691108 -2.648503 -25.622567 -15.285251 15.032281 2.232887 15.616048 -0.998621 -8.434605 3.442787 7.245106 37.856346 -0.367678 7.359841 1.949173 0.777550 0.576430 0.441590 17.942741 -10.083710 3.566612 -21.653895 6.141914 -32.927819 -0.366543 -12.447148 64.473880 -1.696174 -9.999246 0.793472 0.383030 0.335550 0.453080 -2.856398 -4.973585 -8.056664 19.450400 -7.503138 36.397214 -0.152695 -6.861919 21.386827 2.295556 -1.075559 -17.497964 -8.242412 -2.262290 39.429524 3.345650 -6.138460 -24.509600 10.625846 -48.245952 -10.466123 9.603248 -23.899612 -13.784851 26.727208 -21.062233 -6.924132 -4.233750 3.208435 0.798270 0.030700 0.294030 0.334030 -16.642885 49.546914 4.442785 -14.117189 17.077753 -12.622951 -21.434447 4.914467 -2.890853 2.598445 -1.405002 -0.136310 0.490780 -0.034030 -0.043900 
2.469590 16.870290 -5.188910 -27.460914 4.672234 -27.429142 -15.551641 15.361129 2.008685 19.074385 -0.355350 -6.225039 4.309583 6.392180 30.674684 -0.360518 6.609682 2.277257 0.537360 0.256100 0.328470 17.799127 -9.164823 3.960818 -30.392575 3.031059 -37.134378 2.112634 -15.853967 64.729994 -1.677755 -10.530091 0.654939 0.132810 0.378520 0.466240 -2.461792 -6.692149 -8.270723 18.885665 -8.858355 38.362405 2.287598 -8.595982 16.083468 1.015806 0.831189 -17.831259 -7.109779 -1.714856 41.695141 2.857210 -5.460340 -20.544120 13.533328 -47.787170 -12.013751 16.152351 -23.582730 -14.696719 24.100574 -19.621720 -5.403783 -4.331351 3.273576 0.783510 0.064810 0.230660 0.265720 -17.704926 46.322973 7.454591 -18.203347 15.141587 -13.552592 -23.349556 4.846363 -2.790139 2.668639 -1.326304 -0.147950 0.389700 0.051040 -0.050540 
2.403880 17.152460 -5.104880 -30.793884 8.756687 -29.362788 -15.547698 15.343190 2.246964 23.364171 0.417016 -3.298052 2.887141 6.328740 21.432553 -0.318460 6.107076 2.501792 0.447920 0.165450 0.279680 17.800161 -9.284178 3.544159 -34.978577 0.300244 -35.740212 -0.009489 -11.573481 51.398402 -1.065916 -8.129427 1.361888 0.034730 0.383790 0.458390 -2.578174 -6.623887 -8.134666 23.583771 -9.615928 38.276991 2.681860 -8.434764 14.498679 0.038576 1.804569 -17.835753 -5.918647 -1.761198 41.958339 3.370850 -4.962950 -20.049230 17.500084 -46.092904 -10.087503 24.536947 -23.158147 -17.614711 26.266669 -19.516805 -5.332207 -4.520097 3.274683 0.770620 0.060770 0.228350 0.245480 -20.167755 41.538120 8.459504 -19.324633 12.576425 -16.102986 -29.463159 4.403221 -3.671048 2.791893 -1.474298 -0.133690 0.358520 0.068250 -0.033900 
2.375820 17.480970 -5.060330 -32.751886 12.666701 -31.576424 -15.412721 14.811902 2.823357 25.115893 0.951701 1.319625 0.018150 6.095191 10.272801 -0.209796 6.012288 2.645040 0.510590 0.276300 0.325530 17.915877 -9.852337 2.807894 -36.846269 -1.212150 -30.568006 -3.256076 -7.450067 36.649137 -0.691905 -5.787769 2.107508 0.106910 0.393520 0.425300 -3.005733 -5.266914 -7.871311 29.505339 -10.007565 36.626255 0.377212 -7.989072 16.278748 0.067724 2.219347 -16.262207 -4.068549 -3.725188 38.686963 3.978180 -5.616370 -22.799280 21.057238 -41.748145 -6.771806 34.082173 -23.590561 -21.140139 31.132040 -17.942457 -5.847012 -4.689367 3.131956 0.746570 0.048840 0.254540 0.285360 -23.777416 34.987781 9.368015 -21.868062 8.373343 -15.166742 -29.008769 2.630385 -3.207223 2.891310 -1.448068 -0.134300 0.438560 0.014470 -0.006740 
2.354460 17.807600 -5.006100 -35.606253 18.102335 -32.874963 -15.333587 13.864992 3.636508 26.195694 0.485670 3.939480 -3.674936 5.510340 -0.669153 -0.042982 6.442259 2.590241 0.543880 0.300420 0.379750 18.033503 -10.006881 2.259255 -37.697418 -3.289358 -22.547118 -9.929571 -4.156644 16.657359 -0.605325 -4.148780 2.693393 0.155710 0.392920 0.413820 -3.320997 -4.057969 -7.939883 34.767190 -10.010731 32.541463 -0.981246 -7.609852 17.245890 0.072962 3.834738 -15.673064 -0.363767 -5.597751 36.478862 1.738020 -5.601910 -22.680460 24.747121 -38.130206 -4.347527 41.545779 -21.843278 -22.772980 34.402582 -15.535610 -5.857181 -4.835962 3.005782 0.750750 0.072800 0.254760 0.319880 -27.520823 28.692062 10.274115 -19.880917 4.480270 -15.549787 -33.292114 0.473849 -3.429079 3.026885 -1.642511 -0.178050 0.465540 -0.034890 -0.032020 
